#!OML:ASF H:\LiuWeirdWalks\Patient Classification 1\Patient 1\Session 1\male.ASF
:FULLY-SPECIFIED
:DEGREES
2006
root 0.230247 18.1131 36.5682 5.60494 6.72588 7.02368
lowerback 0.0664297 -2.33152 -7.60418
upperback 0.289862 -3.10915 1.8026
thorax 0.770103 -1.59991 6.11118
lowerneck -19.6651 1.63279 5.19927
upperneck 23.3081 2.57164 -7.1283
head 10.9461 0.747589 -3.0787
rclavicle -4.85035e-014 3.97569e-015
rhumerus -38.8413 -3.7723 -76.0952
rradius 36.0488
rwrist -9.33658
rhand -16.3492 -3.58079
rfingers 7.12502
rthumb 9.86325 -33.3298
lclavicle -4.85035e-014 3.97569e-015
lhumerus -37.3764 -2.74517 88.6451
lradius 41.1776
lwrist 14.4704
lhand -11.5982 -3.02511
lfingers 7.12502
lthumb 14.4442 26.4522
rfemur -12.6417 -2.41946 18.1715
rtibia 31.2425
rfoot -14.5108 -23.3065
rtoes 0.798924
lfemur -17.3795 -0.574227 -21.8794
ltibia 44.9573
lfoot -9.6274 8.14113
ltoes -18.1473
2007
root 0.236494 18.1112 36.5778 5.66478 6.72372 6.93207
lowerback -0.0524371 -2.28013 -7.44655
upperback 0.279117 -3.03185 1.78961
thorax 0.804031 -1.56128 6.005
lowerneck -19.7198 1.60741 5.16706
upperneck 23.2998 2.5425 -7.12381
head 10.951 0.731159 -3.07601
rclavicle -3.46879e-014 1.59028e-015
rhumerus -38.8535 -3.89724 -76.0517
rradius 35.99
rwrist -9.29496
rhand -16.3496 -3.58776
rfingers 7.12502
rthumb 9.86291 -33.3367
lclavicle -3.46879e-014 1.59028e-015
lhumerus -37.4463 -2.73739 88.6223
lradius 41.1865
lwrist 14.6602
lhand -11.6863 -2.95244
lfingers 7.12502
lthumb 14.3593 26.5309
rfemur -12.6799 -2.39349 18.258
rtibia 31.2438
rfoot -14.5652 -23.3288
rtoes 0.863336
lfemur -17.3919 -0.707102 -21.8324
ltibia 44.1766
lfoot -10.0262 8.41973
ltoes -18.2305
2008
root 0.243216 18.1096 36.5875 5.72552 6.71367 6.83135
lowerback -0.176406 -2.23248 -7.28804
upperback 0.272046 -2.95953 1.78329
thorax 0.846201 -1.52558 5.90511
lowerneck -19.7802 1.58639 5.13182
upperneck 23.2921 2.51983 -7.11749
head 10.9575 0.717516 -3.07121
rclavicle 2.61402e-014 -8.74653e-015
rhumerus -38.854 -3.99596 -76.016
rradius 35.9335
rwrist -9.24172
rhand -16.341 -3.61546
rfingers 7.12502
rthumb 9.87117 -33.3641
lclavicle 2.61402e-014 -8.74653e-015
lhumerus -37.513 -2.7282 88.6119
lradius 41.2142
lwrist 14.9506
lhand -11.8411 -2.83962
lfingers 7.12502
lthumb 14.2101 26.6543
rfemur -12.721 -2.37048 18.3519
rtibia 31.2444
rfoot -14.6096 -23.3391
rtoes 0.902904
lfemur -17.3931 -0.828382 -21.7759
ltibia 43.3938
lfoot -10.401 8.70583
ltoes -18.2855
2009
root 0.249649 18.1068 36.5968 5.71749 6.71014 6.76678
lowerback -0.216477 -2.19387 -7.19601
upperback 0.28476 -2.90501 1.77692
thorax 0.868314 -1.49898 5.84563
lowerneck -19.8561 1.5764 5.09712
upperneck 23.3011 2.51373 -7.11443
head 10.9746 0.710698 -3.06572
rclavicle -2.78299e-015 8.74653e-015
rhumerus -38.8356 -4.05696 -75.9895
rradius 35.8671
rwrist -9.16738
rhand -16.3154 -3.64282
rfingers 7.12502
rthumb 9.89584 -33.3902
lclavicle -2.78299e-015 8.74653e-015
lhumerus -37.5748 -2.68046 88.5948
lradius 41.2387
lwrist 15.2196
lhand -11.9926 -2.72307
lfingers 7.12502
lthumb 14.0641 26.781
rfemur -12.6828 -2.36237 18.4028
rtibia 31.2497
rfoot -14.653 -23.3414
rtoes 0.924635
lfemur -17.2962 -0.953567 -21.7598
ltibia 42.6034
lfoot -10.7719 9.00201
ltoes -18.356
2010
root 0.256413 18.1043 36.606 5.70028 6.69539 6.70685
lowerback -0.24893 -2.16837 -7.13343
upperback 0.298409 -2.86855 1.77946
thorax 0.892025 -1.4817 5.81207
lowerneck -19.9095 1.58359 5.08234
upperneck 23.296 2.53063 -7.12956
head 10.9844 0.714291 -3.06637
rclavicle -8.74653e-015 -4.77083e-015
rhumerus -38.8115 -4.06352 -75.9767
rradius 35.8013
rwrist -9.0718
rhand -16.2723 -3.67316
rfingers 7.12502
rthumb 9.93744 -33.4186
lclavicle -8.74653e-015 -4.77083e-015
lhumerus -37.6425 -2.57424 88.5582
lradius 41.2511
lwrist 15.413
lhand -12.1119 -2.66679
lfingers 7.12502
lthumb 13.9491 26.8453
rfemur -12.6368 -2.36024 18.4456
rtibia 31.2569
rfoot -14.6907 -23.3303
rtoes 0.903726
lfemur -17.1749 -1.07714 -21.7517
ltibia 41.8107
lfoot -11.1367 9.3098
ltoes -18.3699
